<svg xmlns="http://www.w3.org/2000/svg" width="517" height="482" viewBox="0 0 517 482" version="1.1"><path d="M 244.500 52.656 C 221.437 55.399, 204.212 59.886, 186.750 67.700 C 180.655 70.428, 179.803 71.771, 182.930 73.724 C 184.970 74.998, 190 84.163, 190 86.608 C 190 87.857, 190.370 87.862, 192.750 86.644 C 194.262 85.870, 200.450 83.643, 206.500 81.696 C 239.776 70.984, 263.577 69.511, 298.165 76.021 C 322.118 80.529, 345.166 91.128, 367.500 107.905 C 384.913 120.986, 405.840 147.218, 416.240 169 C 422.352 181.801, 428.193 199.171, 430.364 211 C 432.334 221.737, 433.991 238.116, 433.416 241.169 C 433.175 242.451, 433.274 242.852, 433.635 242.061 C 433.997 241.269, 436.167 238.666, 438.457 236.276 C 442.352 232.211, 442.991 231.919, 448.311 231.766 C 453.955 231.604, 454 231.579, 453.982 228.551 C 453.759 190.226, 429.254 137.419, 397.193 106.173 C 361.200 71.096, 312.332 51.643, 261.500 52.158 C 253.800 52.236, 246.150 52.460, 244.500 52.656 M 227.500 89.227 C 207.717 94.080, 190.570 101.224, 178.500 109.643 C 173.710 112.984, 171.465 115.205, 171.391 116.678 C 171.317 118.136, 171.733 118.656, 172.682 118.292 C 173.452 117.996, 174.010 118.147, 173.922 118.627 C 173.468 121.118, 174.172 123, 175.559 123 C 176.416 123, 176.840 123.450, 176.500 124 C 176.160 124.550, 176.359 125, 176.941 125 C 178.982 125, 177.974 129.420, 175.250 132.408 C 173.473 134.358, 174.447 133.822, 178 130.895 C 190.201 120.842, 201.437 114.549, 218.132 108.417 C 241.761 99.739, 249 95.807, 249 91.649 C 249 90.412, 248.460 88.860, 247.800 88.200 C 246.073 86.473, 236.823 86.941, 227.500 89.227 M 312.587 93.859 C 312.249 94.406, 312.271 98.063, 312.635 101.985 L 313.298 109.116 322.399 113.633 C 327.405 116.117, 334.630 120.427, 338.456 123.210 C 342.282 125.993, 346.588 128.772, 348.024 129.385 C 349.460 129.998, 353.354 133.650, 356.677 137.500 C 360 141.350, 363.740 145.400, 364.989 146.500 C 367.948 149.107, 379.572 166.443, 384.769 176 C 391.339 188.080, 396.037 203.010, 400.087 224.676 C 401.229 230.785, 401.264 230.832, 403.236 228.995 C 404.826 227.514, 405.756 227.337, 407.826 228.124 C 409.254 228.667, 411.471 228.848, 412.753 228.526 C 415.238 227.902, 418 229.851, 418 232.229 C 418 232.983, 418.426 234.028, 418.947 234.550 C 419.468 235.072, 420.074 238.425, 420.293 242 C 420.512 245.575, 420.584 244.450, 420.451 239.500 C 420.046 224.366, 419.251 216.742, 417.160 207.937 C 407.414 166.915, 383.436 133.276, 346.858 109.309 C 337.800 103.374, 324.962 96.760, 319.024 94.970 C 317.636 94.551, 315.758 93.906, 314.851 93.536 C 313.944 93.166, 312.926 93.311, 312.587 93.859 M 155 128.500 C 152.571 130.975, 150.809 133, 151.084 133 C 151.359 133, 153.571 130.975, 156 128.500 C 158.429 126.025, 160.191 124, 159.916 124 C 159.641 124, 157.429 126.025, 155 128.500 M 367.232 224 C 367.232 225.925, 367.438 226.713, 367.689 225.750 C 367.941 224.787, 367.941 223.213, 367.689 222.250 C 367.438 221.287, 367.232 222.075, 367.232 224 M 160.343 230.500 C 160.346 234.900, 160.522 236.576, 160.733 234.224 C 160.945 231.872, 160.942 228.272, 160.727 226.224 C 160.512 224.176, 160.339 226.100, 160.343 230.500 M 127.286 228.500 C 127.294 231.250, 127.488 232.256, 127.718 230.736 C 127.947 229.216, 127.941 226.966, 127.704 225.736 C 127.467 224.506, 127.279 225.750, 127.286 228.500 M 127.272 240 C 127.272 242.475, 127.467 243.488, 127.706 242.250 C 127.944 241.012, 127.944 238.988, 127.706 237.750 C 127.467 236.512, 127.272 237.525, 127.272 240 M 94.252 249.500 C 94.263 251.700, 94.468 252.482, 94.707 251.238 C 94.946 249.994, 94.937 248.194, 94.687 247.238 C 94.437 246.282, 94.241 247.300, 94.252 249.500 M 261.287 333.740 C 264.469 333.939, 269.419 333.937, 272.287 333.736 C 275.154 333.535, 272.550 333.372, 266.500 333.374 C 260.450 333.376, 258.104 333.541, 261.287 333.740 M 261.264 372.718 C 262.784 372.947, 265.034 372.941, 266.264 372.704 C 267.494 372.467, 266.250 372.279, 263.500 372.286 C 260.750 372.294, 259.744 372.488, 261.264 372.718" stroke="none" fill="#cbb494" fill-rule="evenodd"/><path d="M 174.334 74.062 C 158.840 81.767, 147.945 89.939, 132.497 105.445 C 114.514 123.495, 103.718 138.665, 91.428 163.152 C 76.296 193.301, 69.999 226.729, 72.871 261.660 C 75.902 298.517, 88.832 331.066, 113.318 363.478 C 139.789 398.519, 180.967 424.125, 225.063 432.965 C 238.304 435.619, 260.482 437.332, 271 436.512 C 304.293 433.917, 325.339 428.439, 350.500 415.819 C 381.561 400.240, 405.604 378.283, 425.858 347 C 433.432 335.303, 443.581 312.967, 447.101 300.250 C 447.595 298.462, 448.480 295.313, 449.066 293.250 C 452.788 280.164, 455.071 263.466, 455.071 249.335 C 455.071 236.338, 454.478 232.076, 452.642 231.875 C 452.014 231.805, 449.475 231.824, 447 231.915 C 443.052 232.060, 441.955 232.648, 438.056 236.706 L 433.613 241.331 432.757 251.916 C 429.319 294.458, 413.506 330.576, 385.333 360.237 C 360.930 385.927, 324.824 404.468, 288.588 409.915 C 233.837 418.145, 180.196 399.492, 141.458 358.751 C 124.402 340.812, 110.176 316.916, 102.329 293.022 C 92.768 263.908, 91.605 229.891, 99.170 200.592 C 102.828 186.421, 105.920 178.676, 114.422 162.387 C 121.369 149.078, 123.965 145.190, 134.586 132.180 C 147.157 116.781, 166.468 100.519, 182.364 91.945 C 186.564 89.680, 190 87.227, 190 86.495 C 190 84.133, 185.209 75.542, 182.652 73.319 L 180.169 71.160 174.334 74.062 M 278.500 90.348 C 273.068 92.845, 269 99.658, 269 106.256 C 269 111.223, 272.913 118.045, 276.984 120.176 C 285.061 124.404, 296.326 121.225, 300.713 113.480 C 305.070 105.787, 303.097 97.089, 295.763 91.657 C 292.313 89.101, 282.784 88.378, 278.500 90.348 M 170 117 C 170 117.615, 169.574 117.855, 169.053 117.533 C 167.809 116.764, 149.143 134.694, 142.540 143 C 139.698 146.575, 134.561 154, 131.124 159.500 C 117.784 180.845, 111.675 197.367, 107.886 222.340 C 106.357 232.415, 107.352 262.956, 109.503 272 C 117.162 304.202, 134.945 334.645, 158.589 356.033 C 167.858 364.417, 169.583 365.763, 178.910 371.887 C 195.026 382.470, 214.744 390.626, 234 394.674 C 244.619 396.907, 283.844 397.226, 293.500 395.159 C 348.433 383.398, 392.932 345.286, 411.352 294.222 C 415.134 283.738, 417.763 272.786, 419.346 260.921 C 420.762 250.307, 420.524 236.268, 418.899 234.550 C 418.404 234.027, 418 232.983, 418 232.229 C 418 229.851, 415.238 227.902, 412.753 228.526 C 411.471 228.848, 409.254 228.667, 407.826 228.124 C 405.733 227.328, 404.820 227.519, 403.115 229.107 C 401.004 231.074, 401 231.073, 400.826 228.789 C 400.730 227.530, 400.342 233.700, 399.964 242.500 C 398.888 267.531, 393.321 286.275, 380.237 308.923 C 373.180 321.139, 355.637 339.171, 342.105 348.119 C 330.150 356.024, 313.610 363.636, 300 367.499 C 259.606 378.961, 220.577 371.432, 182 344.736 C 172.138 337.911, 152.353 315.448, 146.133 304.013 C 137.832 288.756, 133.156 277.082, 129.904 263.500 C 128.107 255.996, 127.737 251.341, 127.680 235.500 C 127.616 217.929, 127.814 215.734, 130.306 206.317 C 133.133 195.633, 137.800 182.245, 140.613 176.746 C 145.680 166.844, 158.843 149.534, 171.250 136.461 C 177.450 129.928, 179.897 125, 176.941 125 C 176.359 125, 176.160 124.550, 176.500 124 C 176.840 123.450, 176.416 123, 175.559 123 C 174.172 123, 173.468 121.118, 173.922 118.627 C 174.010 118.147, 173.365 118.030, 172.489 118.366 C 171.613 118.702, 171.152 118.563, 171.464 118.058 C 171.777 117.552, 171.575 116.856, 171.016 116.510 C 170.457 116.165, 170 116.385, 170 117 M 226 124.077 C 212.476 126.653, 194.201 135.286, 180.871 145.396 C 171.592 152.433, 166.908 157, 168.968 157 C 169.692 157, 173.933 155.476, 178.392 153.614 C 192.208 147.845, 194.518 147.139, 203.485 145.945 C 215.558 144.339, 223.463 145.366, 232.035 149.654 C 241.137 154.208, 244.500 158.461, 244.500 165.422 C 244.500 171.957, 241.327 178.063, 230.932 191.528 C 220.262 205.350, 217.750 210.567, 217.223 220 C 216.286 236.784, 225.817 249.039, 242.901 253.015 C 249.770 254.614, 265.159 253.786, 278 251.128 C 283.225 250.046, 289.479 248.849, 291.897 248.468 L 296.294 247.775 295.717 252.076 C 294.849 258.548, 287.847 271.728, 281.626 278.600 C 273.113 288.004, 261.416 296.223, 246.176 303.509 C 227.325 312.522, 227.439 312.459, 228 313.538 C 228.275 314.067, 231.875 314.464, 236 314.420 C 244.734 314.326, 259.672 310.283, 273.820 304.183 C 299.063 293.301, 322.637 270.312, 327.575 251.764 C 329.496 244.548, 329.351 240.013, 326.999 233.726 C 323.514 224.411, 315.419 218.109, 304.138 215.926 C 297.784 214.697, 267.289 215.189, 262.250 216.602 C 260.449 217.107, 260 216.829, 260 215.206 C 260 212.569, 265.059 208.349, 269.226 207.510 C 271.027 207.147, 273.276 206.633, 274.224 206.366 C 276.363 205.765, 284.459 191.544, 287.064 183.810 C 295.260 159.482, 277.312 129.606, 251.201 124.115 C 245.128 122.837, 232.603 122.818, 226 124.077 M 348.685 138.358 C 347.758 139.772, 347 141.410, 347 141.998 C 347 144.871, 341.463 153.365, 335.707 159.323 C 326.779 168.564, 318.502 172.458, 307.733 172.482 L 299.966 172.500 298.988 176 C 298.451 177.925, 298.009 180.130, 298.006 180.900 C 298.003 181.671, 296.885 184.596, 295.523 187.400 C 294.161 190.205, 292.923 194.075, 292.773 196 L 292.500 199.500 297.500 199.365 C 304.067 199.187, 314.644 194.932, 324 188.705 C 338.045 179.356, 347.750 166.471, 351.423 152.296 C 353.345 144.881, 353.432 139.973, 351.685 137.584 C 350.448 135.892, 350.271 135.938, 348.685 138.358 M 169.358 170.954 C 152.224 175.040, 140.069 202.482, 140.017 237.201 C 140 248.659, 140.533 252.861, 143.667 265.998 C 152.070 301.217, 183.720 336.073, 219.444 349.453 C 237.868 356.354, 243.448 357.365, 263.500 357.436 C 289.332 357.528, 301.472 354.890, 321.703 344.789 C 363.845 323.750, 388.981 280.891, 387.560 232.500 C 386.922 210.758, 381.003 191.155, 371.106 178.008 C 365.631 170.735, 361.468 169.181, 357.048 172.760 L 354.874 174.521 358.019 183.010 C 361.801 193.219, 363.547 198.490, 364.475 202.500 C 366.113 209.581, 368 224.835, 368 231 C 368 237.295, 366.049 252.896, 364.436 259.500 C 363.221 264.474, 357.107 279.139, 353.814 284.980 C 346.967 297.121, 339.331 305.437, 327 314.184 C 307.444 328.055, 284.093 334.971, 261.118 333.697 C 244.674 332.784, 234.891 329.816, 212.500 318.947 C 195.524 310.706, 179.869 295.080, 170.683 277.208 C 165.020 266.190, 162.376 256.613, 160.882 241.713 C 158.707 220.028, 163.017 198.857, 174.089 176.844 C 176.512 172.026, 176.704 171.100, 175.385 170.594 C 173.644 169.926, 173.676 169.924, 169.358 170.954 M 205.032 247.750 C 195.574 264.700, 192.933 268.858, 188.484 273.807 C 185.295 277.354, 184.032 279.525, 184.429 280.777 C 185.274 283.438, 202.861 301, 204.681 301 C 209.366 301, 237.575 282.814, 248.887 272.500 C 257.262 264.865, 257.353 265.576, 247.909 264.850 C 232.808 263.689, 221.873 257.593, 213.944 245.918 C 211.734 242.663, 209.797 240, 209.641 240 C 209.485 240, 207.411 243.488, 205.032 247.750" stroke="none" fill="#66ab9e" fill-rule="evenodd"/></svg>